<?xml version="1.0" encoding="utf-8"?>
<!-- Generator: Adobe Illustrator 21.0.0, SVG Export Plug-In . SVG Version: 6.00 Build 0)  -->
<svg version="1.1" id="Layer_1" xmlns="http://www.w3.org/2000/svg" xmlns:xlink="http://www.w3.org/1999/xlink" x="0px" y="0px"
	 viewBox="0 0 1140 1000" style="enable-background:new 0 0 1140 1000;" xml:space="preserve">
<style type="text/css">
	.st0{fill:#56A3B3;}
	.st1{fill:#4C8893;}
	.st2{fill:#61BAC9;}
</style>
<g>
	<path class="st0" d="M76.4,290.3c-3.8,2.9-10.7,9.4-18.1,23c-0.3,0.6-0.7,1.1-1.1,1.5c-2,2-8.1,7.5-11,5.1
		c-1.3-1.1-2.8-1.8-4.5-1.8c-6.1,0-17.8,3.7-12.4,32.7c0,0.2,0.1,0.4,0.1,0.6c0.3,3.1,2.1,30.4-16.5,45.3c0,0-11.1,7.9,10.9,13.8
		c0.2,0.1,0.4,0.1,0.6,0.2c2.1,0.8,13.7,5.5,19.7,12.3c0.5,0.5,1,1,1.6,1.4c0.7,0.5,1.9,1.1,3,1.9c3,1.8,6.8,1,8.9-1.8
		c4.6-6.4,11.9-18.1,12.1-29.3c0-0.3,0-0.6,0.1-0.9c0.5-3,3.5-19.1,8-29.3c0.2-0.5,0.4-1.1,0.5-1.7c0.5-3.6,3.7-17.4,20-15.5
		c1.3,0.2,2.5-0.1,3.7-0.7c1.4-0.7,3.3-1.9,5.5-4.1l20.1-20.7c0,0,2.2-3.6-2.7-3.8c-0.7,0-1.5-0.2-2.2-0.5
		c-4.1-1.6-17.5-7.4-23.8-16.2c-0.3-0.4-0.5-0.9-0.7-1.3c-0.7-1.7-3.7-6.7-15.2-11.1C80.6,288.6,78.2,289,76.4,290.3z"/>
	<path class="st1" d="M134.3,323.7c0,0-3.7-4.2-9.2,3.5c0,0-18,26.2-29.5,25.3c0,0-15.1-3-15.4,11.2c0,0-4.5,22.8-8.9,36.2
		c0,0-4.5,19.1-12.9,26.3c0,0-4.7,5.9,2.5,9.4c0,0,15.6,12.9,30.7,15.6c0,0,10.9,4,50.1,34.9c0,0,18.1,15.1,10.9,41.4
		c0,0-5,7.9,24.8,14.9c0,0,1.7-18.8,3-23.3c0,0,1.7-3.5,2-16.6c0,0,6.4-14.4-8.7-38.2c0,0-5-9.7-3.2-13.9c0,0,4.2-1,27.8,6.7
		c0,0,8.9,5,14.9-3c0,0,12.1-10.2,16.4-13.4c0,0,6.4-4.2-4.2-8.9l-25.8-17.1c0,0-3.5-2.5,6.9-7.7c0,0,8.7-4.2,2.2-19.3v-7.5
		c0,0,16.4-5.9,7.2-11.1c0,0-22.8-6.7-45.1-22.3C170.8,346.7,137.5,327.4,134.3,323.7z"/>
	<path class="st0" d="M212.4,382.2c0,0,1.2,13.4,0,18.3c0,0,3,3-7.9,11.9c0,0-7.7,0.2,24.8,19.3c0,0,5.5,5.7,8.7-1.2
		c0,0,10.9-11.2,20.3-8.2c0,0,11.6,4.7,15.1-5.9c0,0,11.9-22.6,4.7-31c0,0,1-3-18.6-3.2c0,0-23.9-5.2-28.1-8.2c0,0-9.4-2.5-11.8,2.5
		L212.4,382.2z"/>
	<path class="st1" d="M286.5,386.6c0,0-6.7-1.7-4,4c0,0-3.2,39.2-19.6,35.4c0,0-14.6-5-27,10.7c0,0-11.2,13.1-18.8,18.1
		c0,0-8.5,12-19.1,5.5c0,0-28.3-14.4-24.8-0.7c0,0,16.6,24.8,12.9,45.8c0,0,0.5,4-5.2,25.8c0,0-3.7,15.4,10.7,16.9
		c0,0,48.6,22.6,56,27.5c0,0,10.4,9.9,23.5-1.2c0,0,6.4-5.9,17.3,7.2c0,0,9.2,7.4,8.2-3.5c0,0-0.5-24.8,7.4-29.5
		c0,0,5.7-8.4-4.8-11.4c0,0-20.2-6.7-2.6-28.5c0,0,7.4-5,0.2-20.6c0,0,0.5-15.4-5.9-22.6c0,0-6.9-24.5,15.9-19.1l24.3,4.5v-21.5
		c0,0-6.2-18.5-3.7-25.3c0,0,4.2-16.2-6.4-15.2C320.9,388.9,291.9,389.1,286.5,386.6z"/>
	<path class="st0" d="M334.3,395.3c0,0-5-4-4.5,7.2c0,0,0,20.7,4.5,24.7c0,0,2.2,27.8-4.5,26.6c0,0-43.3-15.6-36.6,11.2
		c0,0,2.5,8.2,6.1,9.9v12.6c0,0,8,13.9-1.6,24.5c0,0-15.1,16.9,5.5,24c0,0,12.1,18.3,36.7,7.9c0,0,27.5-2.2,63.9,8.9
		c0,0,13.1,8.8,23.3-12.1c0,0,3.2-11.6,11.2-19c0,0,16.1-13.6,0-26.9c0,0-11-10.5,7.2-20.2c0,0,5.7-1.3,12.7-5.8
		c0,0,16.9-10,10.7-16.8c0,0-0.7-8,3.7-15.4c0,0,5.2-6.7-7.2-5c0,0-20.9-1.4-23.6-4.5c0,0-44.6-0.9-61.9-11.1
		C379.7,416.1,338,394.6,334.3,395.3z"/>
	<path class="st1" d="M549.1,425.1c0,0,8.3-12.9-9.3-8.3c0,0-27.4,11.7-46.9,12.5c0,0-22.5-0.1-21.8,22.8c0,0,11.6,7.7-20.2,25.2
		h-6.6c0,0-12.8,14.5-2.8,17.2c0,0,14,7.9,1.4,25.4c0,0-9.9,11.2-18.5,30.1c0,0-7.6,15.8-28.4,4.7c0,0-9.6-7.1-32.4-6.4
		c0,0-16.2-3-35,2c0,0-13.5,3.7-16.5-3.6c0,0-7.7-5.6-12.9,27.7c0,0-2,11.6,17.5,9.4l10.6,0.3c0,0,23.1,17.1,43,21.4
		c0,0,7.3,1.3,17.2,8.9c0,0,18.2,6.9,22.8,12.9c0,0,8.6,4.6,21.1,0c0,0,7.3-1.8,12.9,2.1c0,0,12.6,2.6,16.5-3c0,0,2.3-2.7,6.3-1.4
		c0,0,3-6.2,6.3-5.6c0,0,4-2,6.9-11.9c0,0,2.6-8.3,11.2-9.6c0,0,12.9-13.5,49.6-9.9c0,0,9.9,3.3,15.2-1c0,0,7.3-2.6,14.9,0
		c0,0,19.5,4.3,9.9-15.5c0,0-1.7-10.2-12.4-12.2c0,0-12.1-1.3-14-13.9l0.3-28.7c0,0-3.6-14.5,15.5-10.2c0,0,19.8,4.6,5-18.8
		c0,0-0.7-11.9-4.3-15.2c0,0-15.5-11.9-9.3-23.5c0,0,5-6.9-6.3-9.6C555.7,439.3,546.8,438.7,549.1,425.1z"/>
	<path class="st0" d="M628.7,387.8L556,412.2c0,0-2.6,0.3-2.6,3.6l-1.3,18.1c0,0,5.3,4.4,15.2,2.8c0,0,9.3-1.3,12.9,5
		c0,0,10.6,8.6,13.2-5c0,0,3-12.1,11.6-7.4h9.3l14.5-13.3c0,0-2.6-16.4,5.9-23.6v-4.6H628.7z"/>
	<path class="st1" d="M671.3,381.8c0,0-33.4-0.3-33.4,10.6v19.8c0,0,11.2,4.6,12.2,8.6h7.9l0.3-13.9c0,0,9.3-9.3,10.6-16.2
		L671.3,381.8z"/>
	<path class="st0" d="M634.7,401.3H632l-2.3,16.9l-17.5,15.7c0,0-6.3,3.7-7.6-2.2c0,0-8.3-3.6-8.6,7.9c0,0,1,5.3-10.6,7.6
		c0,0-5.6,0-10.6-6.6c0,0-14.5-2.6-8.9,6.6c0,0-6.5,7.6-1.3,11.9c0,0,10.6,10,13.5,26c0,0,13.9,26.2,1,24.9c0,0-21.2-5-21,3.3v37
		c0,0,10.4,8.3,16.7,8.6c0,0,9.6,0.7,11.6,24.9c0,0,3.6,7.8-10.9,7.1c0,0-6.3,1.4-10.2,0c0,0-4-5-11.9,0.6h-14.2
		c0,0-30.7-5.3-50.9,11.6c0,0-5.9-1-10.9,15.5c0,0-4.3,10.9-26.1,15.5c0,0-19.2-10.2-28.7-1.3c0,0,7.9,7.9,7.6,12.2
		c0,0,22.1,23.5,22.1,30.1c0,0,2.6,15.2,17.8,22.1c0,0,15.9,10.2,26.8,19.5c0,0,21.1,15.5,71.9,6.9c0,0,5.1-2.6,11.1-11.2
		c0,0,5-8.6,27.1-16.2c0,0,10.2-5,15.9-19.8c0,0,4-11.9,34-17.5v-13.2c0,0-7.6-7.9,0-13.9c0,0,9.3-0.3-4-14.2l-1.3-2l0.3-46.3
		c0,0-0.3-10.2-14.2-8.9c0,0-20.8-5.3-11.2-16.9c0,0,8.6-1.7,0.3-14.2c0,0-3.3-1.7,14.9-16.5c0,0,19.2-14.2-2.3-34.7
		c0,0-4.6-6.6,2.3-10.9c0,0,0.3-15.9,8.6-24.3l1-16c0,0,3-3.3-16.5-11.2V401.3z"/>
	<path class="st0" d="M738.4,368c0,0,1.7-4.3-5.6-2l-53.5,12.2H675l-3.6,10.9c0,0,0.4,9.5-5,12.2c0,0-5.6,0.3-4.6,11.9
		c0,0,0,4,12.6,2.8c0,0,5,0.8,6.6,3.1c0,0,4,3.3,5.9-5.9c0,0,1.7-5.3,15.5-3.3l30.4-10.2v-11.9c0,0,11.2-6.3,5.8-11.2
		C738.6,376.6,734.8,372.6,738.4,368z"/>
	<path class="st1" d="M734.5,436.7l14.2-11.9c0,0-12.6-25.6-24.1-20.1C724.5,404.7,714.6,416.9,734.5,436.7z"/>
	<path class="st1" d="M654.7,573.5c0,0,1.5-11.6-9.7-15.9c0,0-23.1-1.6-16.9-10.9c0,0,6.9-6.5,3.3-13.5c0,0-5.1-6,9.5-17.6
		c0,0,19.9-13.2,6-32.4c0,0-9.9-7.6-2.3-15.9c0,0,6.1-10.4,4.3-15.3c0,0,0.7-3.5,4.3-9c0,0,4.2-2.9,0-11.4c0,0,0.3-14.7,18.2-12
		c0,0,13.9,7.4,17.2-3.7c0,0,0.5-5.1,12.3-2.5c0,0,16.7-10.8,18.4-0.8c0,0,0.7,14,7.9,18.9c0,0,5.6,6.3-1.7,11.4l0.3,6.4l-6.3,6.9
		l0.7,8.3c0,0-16.9,17.2-5.9,18.5c0,0,3.6,0.3,4.3,7.7l10.7,8.1c0,0-2.4,15.5,3.5,20.8c0,0,5.6,14.9,0,14.9c0,0-9.9-2.2-10.7,6
		c0,0-1.5,7.5-9.4,8.8c0,0-7.9-1.7-15.2,27.4c0,0,13.5,11.6,10.2,23.1l9.3,14.2l-0.3,4c0,0-4,3.6-6.3,11.6c0,0-4.6,6.9-9.3,9.3
		c0,0-5.3,2.6-5,9.6l-1,8.3c0,0-25.4,0.3-29.4,0c0,0-7.3,2-5.8-10.6c0,0-6.5-8.6,3.1-16.5c0,0,0.7-4-7.6-12.6
		C655.5,617.4,651.2,603.2,654.7,573.5z"/>
	<path class="st0" d="M786.7,361.7c0,0,4.6-9.6-4.6-10.2c0,0-28.4,10.2-35,10.2c0,0-9.3,1.3-5,12.9c0,0,2.3,9.9-2,13.2
		c0,0-13.2,9.9,5,24.1c0,0,2.6,3,3.6,5.6c0,0,1.7,10.9,23.5,6.3c0,0,0-2.3-3.3-13.2l7.9,2c0,0,18.8-15.5,11.1-17.2
		c0,0-4.1-8.3,0.2-13.5c0,0,3.3-1-3-7.3C785,374.6,782.7,366.3,786.7,361.7z"/>
	<path class="st0" d="M735.3,499.5h-4.1c0,0-10.2-13.2-12.6-16.2c0,0-10.2-3.6,5.9-20.2c0,0-4-6.8,3-11l3.3-9
		c0,0,11.6-4.9,12.9-10.1c0,0,5-7.6,11.9-5.3c0,0,17.5-2,17.2,6.9c0,0,5.6,17.2,18.8,26.4c0,0,5.3,0.7,3,6.3c0,0,0,3.3,9.6,4
		c0,0,5.4,18.2-14.5,18.2c0,0-31.5,4-43.7,2.6C746,492.2,738.1,494.8,735.3,499.5z"/>
	<path class="st0" d="M729.8,537.5c0,0,9.6,5.6,7.9-7.9c0,0-13.4-26.4-2.4-26.8c0,0,7.4-7.9,17.6-7.6c0,0,21.8,1.3,36-3
		c0,0,11.9-2.6,13.2,13.5c0,0,0,4,7.6,3c0,0,3.3,0,10.6,14.2l18.8,21.8c0,0,5.3,3.6-2.3,8.3c0,0-14.5,16.9-6.9,32.7
		c0,0-1.7,9.6,1.7,12.9l13.2,13.2c0,0,10.6,0,10.2,10.9c0,0,13.2,24.8,8.3,37.3c0,0-23.8,1.7-36,3.3c0,0-26.1,7.6-22.5,21.8
		c0,0-7.3,18.8-29.1,9.6l-77.6-35.7c0,0-0.3-18.5,5-18.2c0,0,8.9-5.9,15.9-23.8c0,0,1.5-4.5-3.5-8.6c0,0-6.1-7.3-6.4-18.5
		c0,0-1.8-9-5.6-9.9c0,0-6.6-8.3,2-16.2c0,0,2.2-10.5,10-12.5c0,0,8.8-2.2,8.5-10.5C723.9,540.9,724.5,534.5,729.8,537.5z"/>
	<path class="st0" d="M873.2,329.3c0,0-5.6-5,8.6-6.9c0,0,82.6-16.2,155.6-25.1c0,0,16.5-1,3,3.6c0,0-2.6,1.3-13.9,4
		c0,0-11.2,1.7-14.5,4.3c0,0-8.9-0.3-13.2,2c0,0-25.5-3.7-39.8,2.1c0,0-15.7-0.8-12.7,6.8c0,0-2.5,5.5-15.9,0.7
		c0,0-25.8-2.3-17.2,8.6c0,0,11.9,6.9,13.5,13.9c0,0,48.9,5,61.9,0v5.3c0,0-15.7,33,8.8,43.3c0,0,9.3,2,24.1,0
		c0,0-7.6,26.1,11.2,19.2c0,0,46.3-7.6,56.2-12.6c0,0,33-7.6,35.4,9.3c0,0,13.5,34.7-1.3,40c0,0-15.9,13.2-22.8,6.9
		c0,0-14.9-10.9-29.1-5.3c0,0-10.9,2-12.6-1.3c0,0-6.3-6.6-9.9-0.7c0,0-3.6,7.1-23.8,4.9c0,0-22.1,4.1-16.5-11.8c0,0,9.3-4.5-0.3-11
		c0,0-40-27.3-48.2-20.4c0,0-6.9,13.5-17.2,6.3c0,0,5-11.2-8.3-17.2c0,0-7.6,3.6-10.9-1l-13.9-0.3c0,0,6.9-28.7-22.5-45.3
		c0,0-21-8.6-15-18.5C872.1,332.9,876.5,333.3,873.2,329.3z"/>
	<path class="st1" d="M1046.7,346.5c0,0,3.6-6.9-12.2-5.3c0,0-14.9,3.1-25.8-0.3c0,0-17.5-3-17.5,2.8c0,0-5.9,14.7-4.3,29.5
		c0,0,6.3,4.6,4.6,10.9c0,0,3.4,7.4,25.3,4c0,0,11-2.3,5.7,16.5c0,0,3.3,3.4,26.4,0c0,0,38.3-12.4,50.2-10l4.6-0.3v-3
		c0,0-4-1.7-8.9-0.7c0,0-4.3,1-13.9-8.9c0,0-8.3-5-19.2,0.3c0,0-14.5,8.6-14.9-13.5L1046.7,346.5z"/>
	<path class="st1" d="M874.2,347.1c0,0-8.6-3.3-4.6-14.2c0,0,5.5-8.9-5.2-7.3c0,0-15.3-1.3-2.4,21.5c0,0,4.9,6.3,2.4,22.8
		c0,0,10.3,14.9,1.1,19.5c0,0-5.8,4.5,6.7,16.8l15.9,18.7c0,0-5.3,13.7,10.6,11.7c0,0,1.7-4.3,14.9,13.9c0,0,37.7,61.8,47.9,62.4
		c0,0,12.3,5.6,25.2-5.3c0,0,7.6-6.9,22.4-5.3c0,0,18.8-0.7,29.7-10.4c0,0,9.3-5.5,15.5-6.1c0,0,12.6-6.6,15.9-15.5
		c0,0,8.9-12.9,27.8-8.9c0,0,7.9-2.5-8.6-9.4h-19.2c0,0-9.3,4.4-14.9-2.2c0,0-2.9-3.6-10.1,3.6c0,0-45.1,14.5-40.2-14.5
		c0,0,8.6-5.6-1-7.3c0,0-35-26.1-44.3-19.2c0,0-8.9,10.5-13.9,7.4c0,0-9-2.1-6.6-9c0,0,2.3-12.6-7.3-9.3c0,0-15.9-0.7-20.2-1
		c0,0-7.9,3.5-4.6-12.5C907.3,388.2,915.2,367,874.2,347.1z"/>
	<path class="st0" d="M831.9,333.6c0,0,21.1-10.6,21.8-3.6c0,0,6.4,21.6,8.3,21.5c0,0,2,6.3,0,12.9c0,0-0.3,8.3,5.6,17.2
		c0,0,2.3,4.6-7.3,10.9c0,0,7.9,17.8,25.9,30.4l-2.5,8.9c0,0,2,8.3,14.2,7.9c0,0,32.7,30.4,26.4,35c0,0-29.1,4-33.4,6.3
		c0,0-11.6,5-5.6-8.3c0,0,7.6-14.6-36-47.8c0,0-9.9-0.5-4.3-14.4c0,0-4-22.5,0.7-28.1c0,0-16.9-6.6-7.9-17.5
		C837.9,365,834.9,341.2,831.9,333.6z"/>
	<path class="st1" d="M791,380.2c0,0-7.9-12.9,0-19.1c0,0,3.3-3,0-8.3c0,0-3.3-5.6,8.3-7.9c0,0,18.2-5.3,20.2-7.3
		c0,0,10.9-5.3,12.6,6.9c0,0,5.3,20.2,1.7,24.5c0,0-3.6,10.6,9.3,14.5l-1.3,4.7c0,0,2.3,24-0.7,26.7c0,0-2.6,9.6,14.2,16.9
		c0,0,35.7,29.1,26.4,46.9c0,0-5.3,11.7,23.1,3.2c0,0,27.1-6.8,29.4,3.1c0,0,10.6,11.5,12.6,19.1c0,0,11.2,25.1,42.1,5.6
		c0,0,8.4-6.9,24.3-3l41.6-18.5c0,0,0,6.9,3.6,7.6c0,0,27.8,12.1,19.5,26c0,0-6.9,26.5-40.3,39.7c0,0-17.2,9.9-25.1,23.5
		c0,0-9.3,13.9-36.7,13.9c0,0-11.2-3-25.4,4.3c0,0-40.6-1.7-55.8,17.5c0,0-19.5,21.5-28.4,23.8c0,0-5-33.7-19.8-37
		c0,0-9.3-4-8.9-7.6c0,0-7.3-3-5.3-10.2c0,0,3-5.3-2.3-12.9c0,0-1.7-3,2.3-8.3c0,0,1-13.2,10.2-17.5c0,0,8.7,0.1-20.8-30.7
		c0,0-5.3-5.6-5-8.9c0,0-5-5.6-8.3-6.6c0,0-14.5-8.3-3.3-19.5c0,0,9.6-17.8-6-17.8l-5-7.9c0,0-26.1-15.9-19.2-37.3l-1.2-6.3
		c0,0,4.8,3.5,10.4-7.3c0,0,13.2-3.3,7.3-15.2C791.3,393.4,785.7,387.8,791,380.2z"/>
	<path class="st2" d="M87.5,285c0,0,13.8,6.8,15.9,15.3c0,0-2.6,4.8,28.4,18.3c0,0,84.6,62.2,194.3,67.9c0,0,48.9,20.1,52.2,22.2
		c0,0,12.1,16.6,63.2,12.3c0,0,21.4,20.2,105.3-9.6c0,0,75.3-29.1,98.5-31.1c0,0,116.3-21.1,169.2-46.9c0,0,119-31,215.4-39.7
		c0,0,34.1-2.6,15.4,10.6c0,0-37,13.4-61.6,11.2c0,0-21.1-6.7-38.3,12.2l-26.4-2.1c0,0,13.7,11.3,13.2,14.7c0,0,23.1-1.7,30.4,0
		c0,0,15.9,2.1,30.4-3.7c0,0,13.9-3.9,19.2,3.7c0,0,27.4-8.3,38.8,0l49-26.1V285H87.5z"/>
</g>
</svg>
